# xmcd
#
# Track frame offsets: 
#        150
#        24114
#        38481
#        54097
#        73665
#        88571
#        102041
#        120214
#        131257
#        148654
#        168226
#
# Disc length: 2442 seconds
#
# Revision: 1
# Processed by: cddbd v1.4PL0 Copyright (c) Steve Scherf et al.
# Submitted via: ExactAudioCopy v0.90b4
#
DISCID=7709880b
DTITLE=Paul Brandt - Small Towns and Big Dreams
DYEAR=2001
DGENRE=Country
TTITLE0=Small Towns And Big Dreams
TTITLE1=I'm Gonna Fly
TTITLE2=Take It Off
TTITLE3=Warm Sunny Beaches
TTITLE4=Cry If You Want To
TTITLE5=If This Isn't Love
TTITLE6=When You Call My Name
TTITLE7=It's All Good
TTITLE8=Virgil And The Holy Ghost
TTITLE9=The Longest Way
TTITLE10=Canadian Man (Bonus Track)
EXTD=
EXTT0=
EXTT1=
EXTT2=
EXTT3=
EXTT4=
EXTT5=
EXTT6=
EXTT7=
EXTT8=
EXTT9=
EXTT10=
PLAYORDER=
